<mxfile host="app.diagrams.net" modified="2024-03-28T11:22:56.820Z" agent="Mozilla/5.0 (Macintosh; Intel Mac OS X 10_15_7) AppleWebKit/537.36 (KHTML, like Gecko) Chrome/123.0.0.0 Safari/537.36" version="23.1.1" etag="lMxPH7yHmGBAl_E-y0_3" type="github">
  <diagram name="Page-1" id="dx0UbN1KDhQHgxMDVQlJ">
    <mxGraphModel>
      <root>
        <mxCell id="0" />
        <mxCell id="1" parent="0" />
      </root>
    </mxGraphModel>
  </diagram>
</mxfile>
